# Blender v2.78 (sub 0) OBJ File: ''
# www.blender.org
o Cube
v -1.000000 -1.000000 1.000000
v -1.000000 -1.000000 -1.000000
v 1.000000 -1.000000 -1.000000
v 1.000000 -1.000000 1.000000
v -1.000000 1.000000 1.000000
v -1.000000 1.000000 -1.000000
v 1.000000 1.000000 -1.000000
v 1.000000 1.000000 1.000000
v -1.000000 -1.000000 1.000000
v -1.000000 -1.000000 1.000000
v -1.000000 -1.000000 -1.000000
v -1.000000 -1.000000 -1.000000
v 1.000000 -1.000000 1.000000
v 1.000000 -1.000000 1.000000
v -1.000000 1.000000 1.000000
v -1.000000 1.000000 1.000000
v 1.000000 -1.000000 -1.000000
v 1.000000 -1.000000 -1.000000
v -1.000000 1.000000 -1.000000
v -1.000000 1.000000 -1.000000
v 1.000000 1.000000 -1.000000
v 1.000000 1.000000 -1.000000
v 1.000000 1.000000 1.000000
v 1.000000 1.000000 1.000000
vn 0.0000 -1.0000 0.0000
vn 0.0000 1.0000 -0.0000
vn -1.0000 -0.0000 0.0000
vn 0.0000 -0.0000 -1.0000
vn 1.0000 -0.0000 0.0000
vn -0.0000 0.0000 1.0000
s off
f 11//1 13//1 9//1
f 24//2 20//2 16//2
f 15//3 12//3 10//3
f 6//4 18//4 2//4
f 3//5 23//5 14//5
f 1//6 8//6 5//6
f 11//1 17//1 13//1
f 24//2 22//2 20//2
f 15//3 19//3 12//3
f 6//4 21//4 18//4
f 3//5 7//5 23//5
f 1//6 4//6 8//6